<?xml version="1.0" encoding="UTF-8" standalone="no"?>
<!-- Created with Inkscape (http://www.inkscape.org/) -->

<svg
   xmlns:dc="http://purl.org/dc/elements/1.1/"
   xmlns:cc="http://creativecommons.org/ns#"
   xmlns:rdf="http://www.w3.org/1999/02/22-rdf-syntax-ns#"
   xmlns:svg="http://www.w3.org/2000/svg"
   xmlns="http://www.w3.org/2000/svg"
   xmlns:sodipodi="http://sodipodi.sourceforge.net/DTD/sodipodi-0.dtd"
   xmlns:inkscape="http://www.inkscape.org/namespaces/inkscape"
   width="72"
   height="72"
   id="svg2985"
   version="1.1"
   inkscape:version="0.48.1 "
   sodipodi:docname="icon_alternate.svg"
   inkscape:export-filename="D:\Development\serval\ic_launcher_ldpi.png"
   inkscape:export-xdpi="45"
   inkscape:export-ydpi="45">
  <defs
     id="defs2987">
    <filter
       inkscape:collect="always"
       id="filter4044">
      <feGaussianBlur
         inkscape:collect="always"
         stdDeviation="0.65112693"
         id="feGaussianBlur4046" />
    </filter>
    <filter
       inkscape:collect="always"
       id="filter4048">
      <feGaussianBlur
         inkscape:collect="always"
         stdDeviation="0.65112693"
         id="feGaussianBlur4050" />
    </filter>
    <filter
       inkscape:collect="always"
       id="filter4084"
       x="-0.073957918"
       width="1.1479158"
       y="-0.19257649"
       height="1.385153">
      <feGaussianBlur
         inkscape:collect="always"
         stdDeviation="0.39923033"
         id="feGaussianBlur4086" />
    </filter>
    <filter
       inkscape:collect="always"
       id="filter4088"
       x="-0.073979571"
       width="1.1479591"
       y="-0.19119463"
       height="1.3823893">
      <feGaussianBlur
         inkscape:collect="always"
         stdDeviation="0.39923033"
         id="feGaussianBlur4090" />
    </filter>
    <filter
       inkscape:collect="always"
       id="filter4092"
       x="-0.073957918"
       width="1.1479158"
       y="-0.19257649"
       height="1.385153">
      <feGaussianBlur
         inkscape:collect="always"
         stdDeviation="0.39923033"
         id="feGaussianBlur4094" />
    </filter>
    <filter
       inkscape:collect="always"
       id="filter4096"
       x="-0.073979571"
       width="1.1479591"
       y="-0.19119463"
       height="1.3823893">
      <feGaussianBlur
         inkscape:collect="always"
         stdDeviation="0.39923033"
         id="feGaussianBlur4098" />
    </filter>
  </defs>
  <sodipodi:namedview
     id="base"
     pagecolor="#ffffff"
     bordercolor="#666666"
     borderopacity="1.0"
     inkscape:pageopacity="0.0"
     inkscape:pageshadow="2"
     inkscape:zoom="15.999999"
     inkscape:cx="34.24537"
     inkscape:cy="34.344005"
     inkscape:current-layer="layer2"
     showgrid="true"
     inkscape:document-units="px"
     inkscape:grid-bbox="true"
     showguides="true"
     inkscape:guide-bbox="true"
     inkscape:snap-bbox="true"
     inkscape:snap-global="true"
     inkscape:window-width="1680"
     inkscape:window-height="988"
     inkscape:window-x="-8"
     inkscape:window-y="-8"
     inkscape:window-maximized="1"
     inkscape:bbox-paths="false"
     inkscape:snap-nodes="false"
     inkscape:snap-grids="true"
     inkscape:snap-to-guides="false">
    <sodipodi:guide
       orientation="1,0"
       position="200.36835,787.26698"
       id="guide3036" />
    <sodipodi:guide
       orientation="1,0"
       position="226.40274,783.34575"
       id="guide3038" />
    <sodipodi:guide
       orientation="1,0"
       position="195.48288,781.22443"
       id="guide3040" />
    <sodipodi:guide
       orientation="1,0"
       position="231.35248,779.03883"
       id="guide3042" />
    <sodipodi:guide
       orientation="0,1"
       position="212.71058,793.30953"
       id="guide3044" />
    <sodipodi:guide
       orientation="0,1"
       position="214.51048,798.25927"
       id="guide3046" />
    <sodipodi:guide
       orientation="0,1"
       position="210.33213,741.30504"
       id="guide3048" />
    <sodipodi:guide
       orientation="0,1"
       position="211.55349,736.29101"
       id="guide3050" />
    <sodipodi:guide
       orientation="1,0"
       position="206.4109,760.39692"
       id="guide3052" />
    <sodipodi:guide
       orientation="1,0"
       position="213.3534,760.26836"
       id="guide3054" />
    <sodipodi:guide
       orientation="1,0"
       position="220.42447,760.91118"
       id="guide3056" />
    <sodipodi:guide
       orientation="0,1"
       position="206.4109,768.30366"
       id="guide3058" />
    <sodipodi:guide
       orientation="0,1"
       position="213.3534,761.23259"
       id="guide3060" />
    <sodipodi:guide
       orientation="0,1"
       position="215.79613,754.35437"
       id="guide3062" />
    <sodipodi:guide
       orientation="0,1"
       position="216.43896,747.34759"
       id="guide3064" />
    <inkscape:grid
       type="xygrid"
       id="grid3968"
       empspacing="5"
       visible="true"
       enabled="true"
       snapvisiblegridlinesonly="true" />
  </sodipodi:namedview>
  <metadata
     id="metadata2990">
    <rdf:RDF>
      <cc:Work
         rdf:about="">
        <dc:format>image/svg+xml</dc:format>
        <dc:type
           rdf:resource="http://purl.org/dc/dcmitype/StillImage" />
        <dc:title></dc:title>
      </cc:Work>
    </rdf:RDF>
  </metadata>
  <g
     transform="translate(0,-792)"
     inkscape:label="Layer copy"
     id="g3029"
     inkscape:groupmode="layer"
     style="display:inline;opacity:0.7">
    <rect
       ry="4.3652315"
       rx="4.4980845"
       y="812.47748"
       x="5.4774661"
       height="34.045086"
       width="18.045069"
       id="rect3037"
       style="fill:#999999;stroke:#999999;stroke-width:2.95493102;stroke-miterlimit:4;stroke-opacity:1;stroke-dasharray:none;filter:url(#filter4048)" />
    <rect
       style="fill:#999999;stroke:#999999;stroke-width:2.95493102;stroke-miterlimit:4;stroke-opacity:1;stroke-dasharray:none;filter:url(#filter4044)"
       id="rect3071"
       width="18.045069"
       height="34.045086"
       x="48.477467"
       y="812.47748"
       rx="4.4980845"
       ry="4.3652315" />
    <path
       sodipodi:nodetypes="ccc"
       style="display:inline;opacity:0.69999999999999996;fill:none;stroke:#cccc9a;stroke-width:3;stroke-linecap:square;stroke-linejoin:miter;stroke-miterlimit:4;stroke-opacity:1;stroke-dasharray:none;filter:url(#filter4084)"
       d="m 43.5,826.496 -12.955378,0.004 4.942409,-4.97544"
       id="path4072"
       inkscape:connector-curvature="0" />
    <path
       inkscape:connector-curvature="0"
       id="path4074"
       d="M 28.548414,833.531 41.5,833.5 l -4.934172,5.0114"
       style="display:inline;opacity:0.69999999999999996;fill:none;stroke:#566a2e;stroke-width:3;stroke-linecap:square;stroke-linejoin:miter;stroke-miterlimit:4;stroke-opacity:1;stroke-dasharray:none;filter:url(#filter4088)"
       sodipodi:nodetypes="ccc" />
    <g
       id="g4100">
      <path
         sodipodi:nodetypes="ccc"
         style="display:inline;fill:none;stroke:#999999;stroke-width:3;stroke-linecap:square;stroke-linejoin:miter;stroke-miterlimit:4;stroke-opacity:1;stroke-dasharray:none;filter:url(#filter4092)"
         d="m 43.5,826.496 -12.955378,0.004 4.942409,-4.97544"
         id="path4076"
         inkscape:connector-curvature="0" />
      <path
         inkscape:connector-curvature="0"
         id="path4078"
         d="M 28.548414,833.531 41.5,833.5 l -4.934172,5.0114"
         style="display:inline;fill:none;stroke:#999999;stroke-width:3;stroke-linecap:square;stroke-linejoin:miter;stroke-miterlimit:4;stroke-opacity:1;stroke-dasharray:none;filter:url(#filter4096)"
         sodipodi:nodetypes="ccc" />
    </g>
  </g>
  <g
     inkscape:groupmode="layer"
     id="layer2"
     inkscape:label="Layer"
     transform="translate(0,-792)"
     style="display:inline">
    <g
       id="g3376">
      <rect
         ry="0"
         rx="0"
         y="829.92737"
         x="7.9360404"
         height="12.147011"
         width="12.958591"
         id="rect3894"
         style="fill:#ffffe1;fill-opacity:1;stroke:#ffffe1;stroke-width:3.85126567;stroke-miterlimit:4;stroke-opacity:1;stroke-dasharray:none" />
      <rect
         y="812.46735"
         x="7.3816295"
         height="14.163272"
         width="14.067412"
         id="rect3900"
         style="fill:#cccc9a;fill-opacity:1;stroke:#cccc9a;stroke-width:2.74244428;stroke-miterlimit:4;stroke-opacity:1;stroke-dasharray:none" />
      <rect
         ry="4.3652315"
         rx="4.4980845"
         y="810.47748"
         x="5.4774661"
         height="34.045086"
         width="18.045069"
         id="rect3068"
         style="fill:none;stroke:#566a2e;stroke-width:2.95493102;stroke-miterlimit:4;stroke-opacity:1;stroke-dasharray:none" />
      <rect
         rx="3.0107818"
         ry="3.0107818"
         y="814"
         x="9"
         height="12"
         width="11"
         id="rect3066"
         style="fill:#ffffe1;fill-opacity:1" />
      <path
         transform="matrix(0.40658949,0,0,0.40658846,-73.90803,789.27164)"
         d="m 208.78936,103.86021 a 1.1892282,1.1892282 0 1 1 -2.37846,0 1.1892282,1.1892282 0 1 1 2.37846,0 z"
         sodipodi:ry="1.1892282"
         sodipodi:rx="1.1892282"
         sodipodi:cy="103.86021"
         sodipodi:cx="207.60013"
         id="path3863"
         style="fill:#566a2f;fill-opacity:1;stroke:#566a2f;stroke-width:5;stroke-miterlimit:4;stroke-opacity:1;stroke-dasharray:none"
         sodipodi:type="arc" />
      <path
         sodipodi:type="arc"
         style="fill:#566a2f;fill-opacity:1;stroke:#566a2f;stroke-width:5;stroke-miterlimit:4;stroke-opacity:1;stroke-dasharray:none"
         id="path3867"
         sodipodi:cx="207.60013"
         sodipodi:cy="103.86021"
         sodipodi:rx="1.1892282"
         sodipodi:ry="1.1892282"
         d="m 208.78936,103.86021 a 1.1892282,1.1892282 0 1 1 -2.37846,0 1.1892282,1.1892282 0 1 1 2.37846,0 z"
         transform="matrix(0.40658949,0,0,0.40658846,-69.90803,789.27164)" />
      <path
         transform="matrix(0.40658949,0,0,0.40658846,-65.90803,789.27164)"
         d="m 208.78936,103.86021 a 1.1892282,1.1892282 0 1 1 -2.37846,0 1.1892282,1.1892282 0 1 1 2.37846,0 z"
         sodipodi:ry="1.1892282"
         sodipodi:rx="1.1892282"
         sodipodi:cy="103.86021"
         sodipodi:cx="207.60013"
         id="path3869"
         style="fill:#566a2f;fill-opacity:1;stroke:#566a2f;stroke-width:5;stroke-miterlimit:4;stroke-opacity:1;stroke-dasharray:none"
         sodipodi:type="arc" />
      <path
         sodipodi:type="arc"
         style="fill:#566a2f;fill-opacity:1;stroke:#566a2f;stroke-width:5;stroke-miterlimit:4;stroke-opacity:1;stroke-dasharray:none"
         id="path3871"
         sodipodi:cx="207.60013"
         sodipodi:cy="103.86021"
         sodipodi:rx="1.1892282"
         sodipodi:ry="1.1892282"
         d="m 208.78936,103.86021 a 1.1892282,1.1892282 0 1 1 -2.37846,0 1.1892282,1.1892282 0 1 1 2.37846,0 z"
         transform="matrix(0.40658949,0,0,0.40658846,-73.90803,793.27164)" />
      <path
         transform="matrix(0.40658949,0,0,0.40658846,-69.90803,793.27164)"
         d="m 208.78936,103.86021 a 1.1892282,1.1892282 0 1 1 -2.37846,0 1.1892282,1.1892282 0 1 1 2.37846,0 z"
         sodipodi:ry="1.1892282"
         sodipodi:rx="1.1892282"
         sodipodi:cy="103.86021"
         sodipodi:cx="207.60013"
         id="path3873"
         style="fill:#566a2f;fill-opacity:1;stroke:#566a2f;stroke-width:5;stroke-miterlimit:4;stroke-opacity:1;stroke-dasharray:none"
         sodipodi:type="arc" />
      <path
         sodipodi:type="arc"
         style="fill:#566a2f;fill-opacity:1;stroke:#566a2f;stroke-width:5;stroke-miterlimit:4;stroke-opacity:1;stroke-dasharray:none"
         id="path3875"
         sodipodi:cx="207.60013"
         sodipodi:cy="103.86021"
         sodipodi:rx="1.1892282"
         sodipodi:ry="1.1892282"
         d="m 208.78936,103.86021 a 1.1892282,1.1892282 0 1 1 -2.37846,0 1.1892282,1.1892282 0 1 1 2.37846,0 z"
         transform="matrix(0.40658949,0,0,0.40658846,-65.90803,793.27164)" />
      <path
         transform="matrix(0.40658949,0,0,0.40658846,-73.90803,797.27164)"
         d="m 208.78936,103.86021 a 1.1892282,1.1892282 0 1 1 -2.37846,0 1.1892282,1.1892282 0 1 1 2.37846,0 z"
         sodipodi:ry="1.1892282"
         sodipodi:rx="1.1892282"
         sodipodi:cy="103.86021"
         sodipodi:cx="207.60013"
         id="path3877"
         style="fill:#566a2f;fill-opacity:1;stroke:#566a2f;stroke-width:5;stroke-miterlimit:4;stroke-opacity:1;stroke-dasharray:none"
         sodipodi:type="arc" />
      <path
         sodipodi:type="arc"
         style="fill:#566a2f;fill-opacity:1;stroke:#566a2f;stroke-width:5;stroke-miterlimit:4;stroke-opacity:1;stroke-dasharray:none"
         id="path3879"
         sodipodi:cx="207.60013"
         sodipodi:cy="103.86021"
         sodipodi:rx="1.1892282"
         sodipodi:ry="1.1892282"
         d="m 208.78936,103.86021 a 1.1892282,1.1892282 0 1 1 -2.37846,0 1.1892282,1.1892282 0 1 1 2.37846,0 z"
         transform="matrix(0.40658892,0,0,0.40658957,-69.907912,797.27152)" />
      <path
         transform="matrix(0.40658949,0,0,0.40658846,-65.90803,797.27164)"
         d="m 208.78936,103.86021 a 1.1892282,1.1892282 0 1 1 -2.37846,0 1.1892282,1.1892282 0 1 1 2.37846,0 z"
         sodipodi:ry="1.1892282"
         sodipodi:rx="1.1892282"
         sodipodi:cy="103.86021"
         sodipodi:cx="207.60013"
         id="path3881"
         style="fill:#566a2f;fill-opacity:1;stroke:#566a2f;stroke-width:5;stroke-miterlimit:4;stroke-opacity:1;stroke-dasharray:none"
         sodipodi:type="arc" />
    </g>
    <rect
       ry="0"
       rx="0"
       y="829.92737"
       x="50.936039"
       height="12.147011"
       width="12.958591"
       id="rect3993"
       style="fill:#cccc9a;fill-opacity:1;stroke:#cccc9a;stroke-width:3.85126567000000010;stroke-miterlimit:4;stroke-opacity:1;stroke-dasharray:none" />
    <rect
       y="812.46735"
       x="50.38163"
       height="14.163272"
       width="14.067412"
       id="rect3995"
       style="fill:#ffffe1;fill-opacity:1;stroke:#ffffe1;stroke-width:2.74244428000000000;stroke-miterlimit:4;stroke-opacity:1;stroke-dasharray:none" />
    <rect
       ry="4.3652315"
       rx="4.4980845"
       y="810.47748"
       x="48.477467"
       height="34.045086"
       width="18.045069"
       id="rect3997"
       style="fill:none;stroke:#566a2e;stroke-width:2.95493102;stroke-miterlimit:4;stroke-opacity:1;stroke-dasharray:none" />
    <rect
       rx="3.0107818"
       ry="3.0107818"
       y="814"
       x="52"
       height="12"
       width="11"
       id="rect3999"
       style="fill:#cccc9a;fill-opacity:1;stroke:#cccc9a;stroke-opacity:1" />
    <path
       transform="matrix(0.40658949,0,0,0.40658846,-30.908031,789.27163)"
       d="m 208.78936,103.86021 a 1.1892282,1.1892282 0 1 1 -2.37846,0 1.1892282,1.1892282 0 1 1 2.37846,0 z"
       sodipodi:ry="1.1892282"
       sodipodi:rx="1.1892282"
       sodipodi:cy="103.86021"
       sodipodi:cx="207.60013"
       id="path4001"
       style="fill:#566a2f;fill-opacity:1;stroke:#566a2f;stroke-width:5;stroke-miterlimit:4;stroke-opacity:1;stroke-dasharray:none"
       sodipodi:type="arc" />
    <path
       sodipodi:type="arc"
       style="fill:#566a2f;fill-opacity:1;stroke:#566a2f;stroke-width:5;stroke-miterlimit:4;stroke-opacity:1;stroke-dasharray:none"
       id="path4003"
       sodipodi:cx="207.60013"
       sodipodi:cy="103.86021"
       sodipodi:rx="1.1892282"
       sodipodi:ry="1.1892282"
       d="m 208.78936,103.86021 a 1.1892282,1.1892282 0 1 1 -2.37846,0 1.1892282,1.1892282 0 1 1 2.37846,0 z"
       transform="matrix(0.40658949,0,0,0.40658846,-26.908031,789.27163)" />
    <path
       transform="matrix(0.40658949,0,0,0.40658846,-22.908031,789.27163)"
       d="m 208.78936,103.86021 a 1.1892282,1.1892282 0 1 1 -2.37846,0 1.1892282,1.1892282 0 1 1 2.37846,0 z"
       sodipodi:ry="1.1892282"
       sodipodi:rx="1.1892282"
       sodipodi:cy="103.86021"
       sodipodi:cx="207.60013"
       id="path4005"
       style="fill:none;stroke:#566a2f;stroke-width:5;stroke-miterlimit:4;stroke-opacity:1;stroke-dasharray:none"
       sodipodi:type="arc" />
    <path
       sodipodi:type="arc"
       style="fill:#566a2f;fill-opacity:1;stroke:#566a2f;stroke-width:5;stroke-miterlimit:4;stroke-opacity:1;stroke-dasharray:none"
       id="path4007"
       sodipodi:cx="207.60013"
       sodipodi:cy="103.86021"
       sodipodi:rx="1.1892282"
       sodipodi:ry="1.1892282"
       d="m 208.78936,103.86021 a 1.1892282,1.1892282 0 1 1 -2.37846,0 1.1892282,1.1892282 0 1 1 2.37846,0 z"
       transform="matrix(0.40658949,0,0,0.40658846,-30.908031,793.27163)" />
    <path
       transform="matrix(0.40658949,0,0,0.40658846,-26.908031,793.27163)"
       d="m 208.78936,103.86021 a 1.1892282,1.1892282 0 1 1 -2.37846,0 1.1892282,1.1892282 0 1 1 2.37846,0 z"
       sodipodi:ry="1.1892282"
       sodipodi:rx="1.1892282"
       sodipodi:cy="103.86021"
       sodipodi:cx="207.60013"
       id="path4009"
       style="fill:#566a2f;fill-opacity:1;stroke:#566a2f;stroke-width:5;stroke-miterlimit:4;stroke-opacity:1;stroke-dasharray:none"
       sodipodi:type="arc" />
    <path
       sodipodi:type="arc"
       style="fill:#566a2f;fill-opacity:1;stroke:#566a2f;stroke-width:5;stroke-miterlimit:4;stroke-opacity:1;stroke-dasharray:none"
       id="path4011"
       sodipodi:cx="207.60013"
       sodipodi:cy="103.86021"
       sodipodi:rx="1.1892282"
       sodipodi:ry="1.1892282"
       d="m 208.78936,103.86021 a 1.1892282,1.1892282 0 1 1 -2.37846,0 1.1892282,1.1892282 0 1 1 2.37846,0 z"
       transform="matrix(0.40658949,0,0,0.40658846,-22.908031,793.27163)" />
    <path
       transform="matrix(0.40658949,0,0,0.40658846,-30.908031,797.27163)"
       d="m 208.78936,103.86021 a 1.1892282,1.1892282 0 1 1 -2.37846,0 1.1892282,1.1892282 0 1 1 2.37846,0 z"
       sodipodi:ry="1.1892282"
       sodipodi:rx="1.1892282"
       sodipodi:cy="103.86021"
       sodipodi:cx="207.60013"
       id="path4013"
       style="fill:#566a2f;fill-opacity:1;stroke:#566a2f;stroke-width:5;stroke-miterlimit:4;stroke-opacity:1;stroke-dasharray:none"
       sodipodi:type="arc" />
    <path
       sodipodi:type="arc"
       style="fill:#566a2f;fill-opacity:1;stroke:#566a2f;stroke-width:5;stroke-miterlimit:4;stroke-opacity:1;stroke-dasharray:none"
       id="path4015"
       sodipodi:cx="207.60013"
       sodipodi:cy="103.86021"
       sodipodi:rx="1.1892282"
       sodipodi:ry="1.1892282"
       d="m 208.78936,103.86021 a 1.1892282,1.1892282 0 1 1 -2.37846,0 1.1892282,1.1892282 0 1 1 2.37846,0 z"
       transform="matrix(0.40658892,0,0,0.40658957,-26.907913,797.27151)" />
    <path
       transform="matrix(0.40658949,0,0,0.40658846,-22.908031,797.27163)"
       d="m 208.78936,103.86021 a 1.1892282,1.1892282 0 1 1 -2.37846,0 1.1892282,1.1892282 0 1 1 2.37846,0 z"
       sodipodi:ry="1.1892282"
       sodipodi:rx="1.1892282"
       sodipodi:cy="103.86021"
       sodipodi:cx="207.60013"
       id="path4017"
       style="fill:#566a2f;fill-opacity:1;stroke:#566a2f;stroke-width:5;stroke-miterlimit:4;stroke-opacity:1;stroke-dasharray:none"
       sodipodi:type="arc" />
    <path
       inkscape:connector-curvature="0"
       id="path4062"
       d="m 43.5,824.496 -12.955378,0.004 4.942409,-4.97544"
       style="display:inline;opacity:0.69999999999999996;fill:none;stroke:#cccc9a;stroke-width:3;stroke-linecap:square;stroke-linejoin:miter;stroke-miterlimit:4;stroke-opacity:1;stroke-dasharray:none"
       sodipodi:nodetypes="ccc" />
    <path
       sodipodi:nodetypes="ccc"
       style="display:inline;opacity:0.69999999999999996;fill:none;stroke:#566a2e;stroke-width:3;stroke-linecap:square;stroke-linejoin:miter;stroke-miterlimit:4;stroke-opacity:1;stroke-dasharray:none"
       d="M 28.548414,831.531 41.5,831.5 l -4.934172,5.0114"
       id="path4064"
       inkscape:connector-curvature="0" />
    <g
       id="g3406">
      <path
         inkscape:connector-curvature="0"
         id="path3955"
         d="m 43.5,824.496 -12.955378,0.004 4.942409,-4.97544"
         style="display:inline;fill:none;stroke:#cccc9a;stroke-width:3;stroke-linecap:square;stroke-linejoin:miter;stroke-miterlimit:4;stroke-opacity:1;stroke-dasharray:none"
         sodipodi:nodetypes="ccc" />
      <path
         sodipodi:nodetypes="ccc"
         style="display:inline;fill:none;stroke:#566a2e;stroke-width:3;stroke-linecap:square;stroke-linejoin:miter;stroke-miterlimit:4;stroke-opacity:1;stroke-dasharray:none"
         d="M 28.548414,831.531 41.5,831.5 l -4.934172,5.0114"
         id="path3957"
         inkscape:connector-curvature="0" />
    </g>
  </g>
</svg>
