<?xml version="1.0" encoding="UTF-8" standalone="no"?>
<!-- Created with Inkscape (http://www.inkscape.org/) -->

<svg
   xmlns:dc="http://purl.org/dc/elements/1.1/"
   xmlns:cc="http://creativecommons.org/ns#"
   xmlns:rdf="http://www.w3.org/1999/02/22-rdf-syntax-ns#"
   xmlns:svg="http://www.w3.org/2000/svg"
   xmlns="http://www.w3.org/2000/svg"
   xmlns:sodipodi="http://sodipodi.sourceforge.net/DTD/sodipodi-0.dtd"
   xmlns:inkscape="http://www.inkscape.org/namespaces/inkscape"
   width="72"
   height="72"
   id="svg2985"
   version="1.1"
   inkscape:version="0.48.1 "
   sodipodi:docname="icon_source.svg"
   inkscape:export-filename="C:\Users\Jeremy\Development\serval\batphone\res\drawable\ic_start.png"
   inkscape:export-xdpi="156.52"
   inkscape:export-ydpi="156.52">
  <defs
     id="defs2987">
    <filter
       inkscape:collect="always"
       id="filter3916">
      <feGaussianBlur
         inkscape:collect="always"
         stdDeviation="1.1124313"
         id="feGaussianBlur3918" />
    </filter>
    <filter
       inkscape:collect="always"
       id="filter3940"
       x="-0.07875"
       width="1.1575"
       y="-0.252"
       height="1.504">
      <feGaussianBlur
         inkscape:collect="always"
         stdDeviation="0.525"
         id="feGaussianBlur3942" />
    </filter>
    <filter
       inkscape:collect="always"
       id="filter3944"
       x="-0.07875"
       width="1.1575"
       y="-0.252"
       height="1.504">
      <feGaussianBlur
         inkscape:collect="always"
         stdDeviation="0.525"
         id="feGaussianBlur3946" />
    </filter>
    <filter
       inkscape:collect="always"
       id="filter4043">
      <feGaussianBlur
         inkscape:collect="always"
         stdDeviation="1.1124313"
         id="feGaussianBlur4045" />
    </filter>
  </defs>
  <sodipodi:namedview
     id="base"
     pagecolor="#ffffff"
     bordercolor="#666666"
     borderopacity="1.0"
     inkscape:pageopacity="0.0"
     inkscape:pageshadow="2"
     inkscape:zoom="11.313708"
     inkscape:cx="26.197154"
     inkscape:cy="38.048915"
     inkscape:current-layer="layer1"
     showgrid="true"
     inkscape:document-units="px"
     inkscape:grid-bbox="true"
     showguides="true"
     inkscape:guide-bbox="true"
     inkscape:snap-bbox="true"
     inkscape:snap-global="true"
     inkscape:window-width="1366"
     inkscape:window-height="706"
     inkscape:window-x="-8"
     inkscape:window-y="-8"
     inkscape:window-maximized="1"
     inkscape:bbox-paths="true"
     inkscape:snap-nodes="false"
     inkscape:snap-grids="true"
     inkscape:snap-to-guides="false">
    <sodipodi:guide
       orientation="1,0"
       position="200.36835,787.26698"
       id="guide3036" />
    <sodipodi:guide
       orientation="1,0"
       position="226.40274,783.34575"
       id="guide3038" />
    <sodipodi:guide
       orientation="1,0"
       position="195.48288,781.22443"
       id="guide3040" />
    <sodipodi:guide
       orientation="1,0"
       position="231.35248,779.03883"
       id="guide3042" />
    <sodipodi:guide
       orientation="0,1"
       position="212.71058,793.30953"
       id="guide3044" />
    <sodipodi:guide
       orientation="0,1"
       position="214.51048,798.25927"
       id="guide3046" />
    <sodipodi:guide
       orientation="0,1"
       position="210.33213,741.30504"
       id="guide3048" />
    <sodipodi:guide
       orientation="0,1"
       position="211.55349,736.29101"
       id="guide3050" />
    <sodipodi:guide
       orientation="1,0"
       position="206.4109,760.39692"
       id="guide3052" />
    <sodipodi:guide
       orientation="1,0"
       position="213.3534,760.26836"
       id="guide3054" />
    <sodipodi:guide
       orientation="1,0"
       position="220.42447,760.91118"
       id="guide3056" />
    <sodipodi:guide
       orientation="0,1"
       position="206.4109,768.30366"
       id="guide3058" />
    <sodipodi:guide
       orientation="0,1"
       position="213.3534,761.23259"
       id="guide3060" />
    <sodipodi:guide
       orientation="0,1"
       position="215.79613,754.35437"
       id="guide3062" />
    <sodipodi:guide
       orientation="0,1"
       position="216.43896,747.34759"
       id="guide3064" />
    <inkscape:grid
       type="xygrid"
       id="grid3968"
       empspacing="10"
       visible="true"
       enabled="true"
       snapvisiblegridlinesonly="true"
       spacingx="1px"
       spacingy="1px" />
  </sodipodi:namedview>
  <metadata
     id="metadata2990">
    <rdf:RDF>
      <cc:Work
         rdf:about="">
        <dc:format>image/svg+xml</dc:format>
        <dc:type
           rdf:resource="http://purl.org/dc/dcmitype/StillImage" />
        <dc:title></dc:title>
      </cc:Work>
    </rdf:RDF>
  </metadata>
  <g
     inkscape:groupmode="layer"
     id="layer2"
     inkscape:label="Layer"
     transform="translate(0,-792)"
     style="display:inline">
    <g
       id="g3954">
      <rect
         style="opacity:0.98999999;fill:#4d4d4d;stroke:#4d4d4d;stroke-width:6;stroke-miterlimit:4;stroke-opacity:1;stroke-dasharray:none;filter:url(#filter3916)"
         id="rect3914"
         width="30.965998"
         height="58.028503"
         x="7.1542525"
         y="800.90564"
         rx="6"
         ry="6" />
      <rect
         ry="0"
         rx="0"
         y="829"
         x="10"
         height="25"
         width="25"
         id="rect3894"
         style="fill:#ffffe1;fill-opacity:1;stroke:none" />
      <rect
         y="802"
         x="10"
         height="27"
         width="25"
         id="rect3900"
         style="fill:#cccc9a;fill-opacity:1;stroke:none" />
      <rect
         ry="6"
         rx="6"
         y="798.9715"
         x="7.0340023"
         height="58.028503"
         width="30.965998"
         id="rect3068"
         style="fill:none;stroke:#566a2e;stroke-width:6;stroke-miterlimit:4;stroke-opacity:1;stroke-dasharray:none" />
      <rect
         rx="2.8925433"
         ry="3.1613336"
         y="805"
         x="13"
         height="21"
         width="19.000002"
         id="rect3066"
         style="fill:#ffffe1;fill-opacity:1" />
      <path
         transform="matrix(0.6776487,0,0,0.67764815,-125.17996,764.11932)"
         d="m 208.78936,103.86021 a 1.1892282,1.1892282 0 1 1 -2.37846,0 1.1892282,1.1892282 0 1 1 2.37846,0 z"
         sodipodi:ry="1.1892282"
         sodipodi:rx="1.1892282"
         sodipodi:cy="103.86021"
         sodipodi:cx="207.60013"
         id="path3863"
         style="fill:#566a2f;fill-opacity:1;stroke:#566a2f;stroke-width:5;stroke-miterlimit:4;stroke-opacity:1;stroke-dasharray:none"
         sodipodi:type="arc" />
      <path
         sodipodi:type="arc"
         style="fill:#566a2f;fill-opacity:1;stroke:#566a2f;stroke-width:5;stroke-miterlimit:4;stroke-opacity:1;stroke-dasharray:none"
         id="path3867"
         sodipodi:cx="207.60013"
         sodipodi:cy="103.86021"
         sodipodi:rx="1.1892282"
         sodipodi:ry="1.1892282"
         d="m 208.78936,103.86021 a 1.1892282,1.1892282 0 1 1 -2.37846,0 1.1892282,1.1892282 0 1 1 2.37846,0 z"
         transform="matrix(0.6776487,0,0,0.67764815,-118.17996,764.11932)" />
      <path
         transform="matrix(0.6776487,0,0,0.67764815,-111.17996,764.11932)"
         d="m 208.78936,103.86021 a 1.1892282,1.1892282 0 1 1 -2.37846,0 1.1892282,1.1892282 0 1 1 2.37846,0 z"
         sodipodi:ry="1.1892282"
         sodipodi:rx="1.1892282"
         sodipodi:cy="103.86021"
         sodipodi:cx="207.60013"
         id="path3869"
         style="fill:#566a2f;fill-opacity:1;stroke:#566a2f;stroke-width:5;stroke-miterlimit:4;stroke-opacity:1;stroke-dasharray:none"
         sodipodi:type="arc" />
      <path
         sodipodi:type="arc"
         style="fill:#566a2f;fill-opacity:1;stroke:#566a2f;stroke-width:5;stroke-miterlimit:4;stroke-opacity:1;stroke-dasharray:none"
         id="path3871"
         sodipodi:cx="207.60013"
         sodipodi:cy="103.86021"
         sodipodi:rx="1.1892282"
         sodipodi:ry="1.1892282"
         d="m 208.78936,103.86021 a 1.1892282,1.1892282 0 1 1 -2.37846,0 1.1892282,1.1892282 0 1 1 2.37846,0 z"
         transform="matrix(0.6776487,0,0,0.67764815,-125.17996,771.11932)" />
      <path
         transform="matrix(0.6776487,0,0,0.67764815,-118.17996,771.11932)"
         d="m 208.78936,103.86021 a 1.1892282,1.1892282 0 1 1 -2.37846,0 1.1892282,1.1892282 0 1 1 2.37846,0 z"
         sodipodi:ry="1.1892282"
         sodipodi:rx="1.1892282"
         sodipodi:cy="103.86021"
         sodipodi:cx="207.60013"
         id="path3873"
         style="fill:#566a2f;fill-opacity:1;stroke:#566a2f;stroke-width:5;stroke-miterlimit:4;stroke-opacity:1;stroke-dasharray:none"
         sodipodi:type="arc" />
      <path
         sodipodi:type="arc"
         style="fill:#566a2f;fill-opacity:1;stroke:#566a2f;stroke-width:5;stroke-miterlimit:4;stroke-opacity:1;stroke-dasharray:none"
         id="path3875"
         sodipodi:cx="207.60013"
         sodipodi:cy="103.86021"
         sodipodi:rx="1.1892282"
         sodipodi:ry="1.1892282"
         d="m 208.78936,103.86021 a 1.1892282,1.1892282 0 1 1 -2.37846,0 1.1892282,1.1892282 0 1 1 2.37846,0 z"
         transform="matrix(0.6776487,0,0,0.67764815,-118.17996,778.11932)" />
      <path
         transform="matrix(0.6776487,0,0,0.67764815,-111.17996,771.11932)"
         d="m 208.78936,103.86021 a 1.1892282,1.1892282 0 1 1 -2.37846,0 1.1892282,1.1892282 0 1 1 2.37846,0 z"
         sodipodi:ry="1.1892282"
         sodipodi:rx="1.1892282"
         sodipodi:cy="103.86021"
         sodipodi:cx="207.60013"
         id="path3877"
         style="fill:#566a2f;fill-opacity:1;stroke:#566a2f;stroke-width:5;stroke-miterlimit:4;stroke-opacity:1;stroke-dasharray:none"
         sodipodi:type="arc" />
      <path
         sodipodi:type="arc"
         style="fill:#566a2f;fill-opacity:1;stroke:#566a2f;stroke-width:5;stroke-miterlimit:4;stroke-opacity:1;stroke-dasharray:none"
         id="path3879"
         sodipodi:cx="207.60013"
         sodipodi:cy="103.86021"
         sodipodi:rx="1.1892282"
         sodipodi:ry="1.1892282"
         d="m 208.78936,103.86021 a 1.1892282,1.1892282 0 1 1 -2.37846,0 1.1892282,1.1892282 0 1 1 2.37846,0 z"
         transform="matrix(0.67764887,0,0,0.67764779,-125.17999,778.11936)" />
      <path
         transform="matrix(0.6776487,0,0,0.67764815,-111.17996,778.11932)"
         d="m 208.78936,103.86021 a 1.1892282,1.1892282 0 1 1 -2.37846,0 1.1892282,1.1892282 0 1 1 2.37846,0 z"
         sodipodi:ry="1.1892282"
         sodipodi:rx="1.1892282"
         sodipodi:cy="103.86021"
         sodipodi:cx="207.60013"
         id="path3881"
         style="fill:#566a2f;fill-opacity:1;stroke:#566a2f;stroke-width:5;stroke-miterlimit:4;stroke-opacity:1;stroke-dasharray:none"
         sodipodi:type="arc" />
    </g>
    <g
       id="g3948">
      <path
         sodipodi:nodetypes="ccc"
         style="fill:none;stroke:#4d4d4d;stroke-width:3;stroke-linecap:square;stroke-linejoin:miter;stroke-miterlimit:4;stroke-opacity:1;stroke-dasharray:none;display:inline;filter:url(#filter3944)"
         d="m 66.5,826.5 -16,0 5,-5"
         id="path3920"
         inkscape:connector-curvature="0" />
      <path
         inkscape:connector-curvature="0"
         id="path3922"
         d="m 48.5,835.5 16,0 -5,5"
         style="fill:none;stroke:#4d4d4d;stroke-width:3;stroke-linecap:square;stroke-linejoin:miter;stroke-miterlimit:4;stroke-opacity:1;stroke-dasharray:none;display:inline;filter:url(#filter3940)"
         sodipodi:nodetypes="ccc" />
      <path
         inkscape:connector-curvature="0"
         id="path3955"
         d="m 66.5,824.5 -16,0 5,-5"
         style="fill:none;stroke:#cccc9a;stroke-width:3;stroke-linecap:square;stroke-linejoin:miter;stroke-miterlimit:4;stroke-opacity:1;stroke-dasharray:none;display:inline"
         sodipodi:nodetypes="ccc" />
      <path
         sodipodi:nodetypes="ccc"
         style="fill:none;stroke:#566a2e;stroke-width:3;stroke-linecap:square;stroke-linejoin:miter;stroke-miterlimit:4;stroke-opacity:1;stroke-dasharray:none;display:inline"
         d="m 48.5,833.5 16,0 -5,5"
         id="path3957"
         inkscape:connector-curvature="0" />
    </g>
  </g>
  <g
     inkscape:groupmode="layer"
     id="layer1"
     inkscape:label="second"
     style="display:inline">
    <g
       transform="translate(0,-792)"
       style="display:inline"
       id="g4048">
      <rect
         ry="6"
         rx="6"
         y="800.9715"
         x="77.034004"
         height="58.028503"
         width="30.965998"
         id="rect4041"
         style="fill:#4d4d4d;stroke:#4d4d4d;stroke-width:6;stroke-miterlimit:4;stroke-opacity:1;stroke-dasharray:none;filter:url(#filter4043)" />
      <rect
         style="fill:#cccc9a;fill-opacity:1;stroke:none"
         id="rect4001"
         width="25"
         height="25"
         x="80"
         y="829"
         rx="0"
         ry="0" />
      <rect
         style="fill:#ffffe1;fill-opacity:1;stroke:none"
         id="rect4003"
         width="25"
         height="27"
         x="80"
         y="802" />
      <rect
         style="fill:none;stroke:#566a2e;stroke-width:6;stroke-miterlimit:4;stroke-opacity:1;stroke-dasharray:none"
         id="rect4005"
         width="30.965998"
         height="58.028503"
         x="77.034004"
         y="798.9715"
         rx="6"
         ry="6" />
      <rect
         style="fill:#cccc9a;fill-opacity:1"
         id="rect4007"
         width="19.000002"
         height="21"
         x="83"
         y="805"
         ry="3.1613336"
         rx="2.8925433" />
      <path
         sodipodi:type="arc"
         style="fill:#566a2f;fill-opacity:1;stroke:#566a2f;stroke-width:5;stroke-miterlimit:4;stroke-opacity:1;stroke-dasharray:none"
         id="path4009"
         sodipodi:cx="207.60013"
         sodipodi:cy="103.86021"
         sodipodi:rx="1.1892282"
         sodipodi:ry="1.1892282"
         d="m 208.78936,103.86021 a 1.1892282,1.1892282 0 1 1 -2.37846,0 1.1892282,1.1892282 0 1 1 2.37846,0 z"
         transform="matrix(0.6776487,0,0,0.67764815,-55.179956,764.11934)" />
      <path
         transform="matrix(0.6776487,0,0,0.67764815,-48.179956,764.11934)"
         d="m 208.78936,103.86021 a 1.1892282,1.1892282 0 1 1 -2.37846,0 1.1892282,1.1892282 0 1 1 2.37846,0 z"
         sodipodi:ry="1.1892282"
         sodipodi:rx="1.1892282"
         sodipodi:cy="103.86021"
         sodipodi:cx="207.60013"
         id="path4011"
         style="fill:#566a2f;fill-opacity:1;stroke:#566a2f;stroke-width:5;stroke-miterlimit:4;stroke-opacity:1;stroke-dasharray:none"
         sodipodi:type="arc" />
      <path
         sodipodi:type="arc"
         style="fill:#566a2f;fill-opacity:1;stroke:#566a2f;stroke-width:5;stroke-miterlimit:4;stroke-opacity:1;stroke-dasharray:none"
         id="path4013"
         sodipodi:cx="207.60013"
         sodipodi:cy="103.86021"
         sodipodi:rx="1.1892282"
         sodipodi:ry="1.1892282"
         d="m 208.78936,103.86021 a 1.1892282,1.1892282 0 1 1 -2.37846,0 1.1892282,1.1892282 0 1 1 2.37846,0 z"
         transform="matrix(0.6776487,0,0,0.67764815,-41.179956,764.11934)" />
      <path
         transform="matrix(0.6776487,0,0,0.67764815,-55.179956,771.11934)"
         d="m 208.78936,103.86021 a 1.1892282,1.1892282 0 1 1 -2.37846,0 1.1892282,1.1892282 0 1 1 2.37846,0 z"
         sodipodi:ry="1.1892282"
         sodipodi:rx="1.1892282"
         sodipodi:cy="103.86021"
         sodipodi:cx="207.60013"
         id="path4015"
         style="fill:#566a2f;fill-opacity:1;stroke:#566a2f;stroke-width:5;stroke-miterlimit:4;stroke-opacity:1;stroke-dasharray:none"
         sodipodi:type="arc" />
      <path
         sodipodi:type="arc"
         style="fill:#566a2f;fill-opacity:1;stroke:#566a2f;stroke-width:5;stroke-miterlimit:4;stroke-opacity:1;stroke-dasharray:none"
         id="path4017"
         sodipodi:cx="207.60013"
         sodipodi:cy="103.86021"
         sodipodi:rx="1.1892282"
         sodipodi:ry="1.1892282"
         d="m 208.78936,103.86021 a 1.1892282,1.1892282 0 1 1 -2.37846,0 1.1892282,1.1892282 0 1 1 2.37846,0 z"
         transform="matrix(0.6776487,0,0,0.67764815,-48.179956,771.11934)" />
      <path
         transform="matrix(0.6776487,0,0,0.67764815,-48.179956,778.11934)"
         d="m 208.78936,103.86021 a 1.1892282,1.1892282 0 1 1 -2.37846,0 1.1892282,1.1892282 0 1 1 2.37846,0 z"
         sodipodi:ry="1.1892282"
         sodipodi:rx="1.1892282"
         sodipodi:cy="103.86021"
         sodipodi:cx="207.60013"
         id="path4019"
         style="fill:#566a2f;fill-opacity:1;stroke:#566a2f;stroke-width:5;stroke-miterlimit:4;stroke-opacity:1;stroke-dasharray:none"
         sodipodi:type="arc" />
      <path
         sodipodi:type="arc"
         style="fill:#566a2f;fill-opacity:1;stroke:#566a2f;stroke-width:5;stroke-miterlimit:4;stroke-opacity:1;stroke-dasharray:none"
         id="path4021"
         sodipodi:cx="207.60013"
         sodipodi:cy="103.86021"
         sodipodi:rx="1.1892282"
         sodipodi:ry="1.1892282"
         d="m 208.78936,103.86021 a 1.1892282,1.1892282 0 1 1 -2.37846,0 1.1892282,1.1892282 0 1 1 2.37846,0 z"
         transform="matrix(0.6776487,0,0,0.67764815,-41.179956,771.11934)" />
      <path
         transform="matrix(0.67764887,0,0,0.67764779,-55.179986,778.11938)"
         d="m 208.78936,103.86021 a 1.1892282,1.1892282 0 1 1 -2.37846,0 1.1892282,1.1892282 0 1 1 2.37846,0 z"
         sodipodi:ry="1.1892282"
         sodipodi:rx="1.1892282"
         sodipodi:cy="103.86021"
         sodipodi:cx="207.60013"
         id="path4023"
         style="fill:#566a2f;fill-opacity:1;stroke:#566a2f;stroke-width:5;stroke-miterlimit:4;stroke-opacity:1;stroke-dasharray:none"
         sodipodi:type="arc" />
      <path
         sodipodi:type="arc"
         style="fill:#566a2f;fill-opacity:1;stroke:#566a2f;stroke-width:5;stroke-miterlimit:4;stroke-opacity:1;stroke-dasharray:none"
         id="path4025"
         sodipodi:cx="207.60013"
         sodipodi:cy="103.86021"
         sodipodi:rx="1.1892282"
         sodipodi:ry="1.1892282"
         d="m 208.78936,103.86021 a 1.1892282,1.1892282 0 1 1 -2.37846,0 1.1892282,1.1892282 0 1 1 2.37846,0 z"
         transform="matrix(0.6776487,0,0,0.67764815,-41.179956,778.11934)" />
    </g>
  </g>
</svg>
